<?xml version="1.0" encoding="utf-8"?>
<!-- Generator: Adobe Illustrator 25.3.1, SVG Export Plug-In . SVG Version: 6.00 Build 0)  -->
<svg version="1.1" id="Logo" xmlns="http://www.w3.org/2000/svg" xmlns:xlink="http://www.w3.org/1999/xlink" x="0px" y="0px"
	 viewBox="0 0 1003.9 345.3" style="enable-background:new 0 0 1003.9 345.3;" xml:space="preserve">
<style type="text/css">
	.st0{fill:#FFFFFF;}
</style>
<g>
	<g>
		<g>
			<g>
				<path class="st0" d="M900.2,144.4C847.8,127.5,833,113,833,97.5c0-21.8,25.8-34.7,63.4-34.7c14.5,0,25,1.3,32.3,2.9l-0.2,43.1
					l49.4,0.9l3.5-86.6c-23.3-5.6-59.2-12.3-89.2-12.3c-69.4,0-124.2,32.9-124.2,92.4c0,56.6,38.1,77.5,105.5,98.4
					c52,16.2,57.5,28.6,57.5,44.6c0,18.3-25.6,32-58.3,32c-33.5,0-70.7-11.4-93.5-20.8c-6.2,13.3-19.5,35.6-28.2,48.3
					c33.8,18.6,74.1,28.7,119.4,28.7c69.1,0,127.8-32.7,127.8-97.6C998,186.4,967.7,166,900.2,144.4"/>
				<path class="st0" d="M217.3,13.2L83,13.2l0,39.4l33.7,0l-84,237.1l-26.8,0l0,39.3l112.7,0l0-39.4l-26.5,0l15.3-43.2l122.1,0
					l15.3,43.2l-24.8,0l0,39.4l120.5,0l0-39.4l-25.1,0L217.3,13.2z M124.7,197.2l43.7-123.4l43.8,123.4L124.7,197.2z"/>
				<path class="st0" d="M676.1,67.1L676.1,67.1c-16.6-7.1-34.9-11-54.2-11c-4.9,0-9.8,0.3-14.6,0.7c-16.8,23-26.8,51.4-26.8,82.1
					c0,57.7,35.1,107.2,85.1,128.3c-12.6,8.7-27.6,13.8-43.7,13.8c-44.4,0-80.4-38.4-80.4-85.7c0-20.4,6.7-39.1,17.9-53.9
					c0-21.7,7.7-61.2,19.4-78.5c-56.2,18.1-96.2,71.4-96.2,132.4c0,24.3,6.2,47,17.1,66.9c-13.2,13.9-31,21.8-48,21.8
					c-23,0-39.6-18-39.6-45l0-123.8l71.8,0l0-49.3l-71.8,0l0-53.3l-64.5,0l0,53.3l-47.3,0l0,49.3l47.3,0l0,130.2
					c0,66.9,46.6,88.8,91.9,88.8c37.9,0,68.8-17.9,85.9-38.5c25,24,59,38.8,96.5,38.8c75.9,0,139.3-62,139.3-139.2
					C761.3,137.6,726.1,88.2,676.1,67.1 M698.5,221.5c-34-10-59-43.1-59-82.6c0-9.1,1.4-17.9,3.9-26.2c34,10,59,43.1,59,82.6
					C702.3,204.4,701,213.2,698.5,221.5"/>
			</g>
		</g>
	</g>
</g>
</svg>
