<?xml version="1.0" encoding="utf-8"?>
<!-- Generator: Adobe Illustrator 25.3.1, SVG Export Plug-In . SVG Version: 6.00 Build 0)  -->
<svg version="1.1" xmlns="http://www.w3.org/2000/svg" xmlns:xlink="http://www.w3.org/1999/xlink" x="0px" y="0px"
	 viewBox="0 0 581.1 581.1" style="enable-background:new 0 0 581.1 581.1;" xml:space="preserve">
<style type="text/css">
	.st0{fill:#0596FF;}
	.st1{fill:none;}
</style>
<g id="Globe">
	<path id="Globe_1_" class="st0" d="M290.6,7.1c-10,0-29.5,1.5-29.5,1.5c-34.9,47.1-55.5,105.4-55.5,168.5
		c0,116.6,70.3,216.7,170.9,260.2c-25.2,14.8-54.5,23.3-85.9,23.3c-93.9,0-170.1-76.1-170.1-170.1c0-35.2,10.7-67.8,29-95
		c-4.2-60.7,12-121.2,42.8-171C84.2,64.6,7.1,168.6,7.1,290.5C7.1,447.1,134,574,290.6,574S574,447.1,574,290.5
		C574,134,447.1,7.1,290.6,7.1z M452.3,343.3c-76.3-16.8-133.4-84.7-133.4-166.1c0-18.4,3-36.1,8.4-52.7
		c76.3,16.8,133.4,84.7,133.4,166.1C460.6,309,457.7,326.7,452.3,343.3z"/>
</g>
<g id="Safety_zone">
	<rect x="-1.8" y="-7.8" class="st1" width="1700.8" height="1700.8"/>
</g>
</svg>
