<svg xmlns="http://www.w3.org/2000/svg" width="1024" height="177" fill="none" viewBox="0 0 1024 177">
  <path fill="#009374" d="M5.008 5.025v46.019c3.586-.232 7.173-.736 10.909-1.023 39.992-3.068 94.519-10.008 153.396-35.452V5.025H5.008zm164.305 13.294C111.377 44.294 53.509 55.312 5.008 59.225v19.09c48.078-8.468 106.805-23.467 164.305-50.792v-9.204zm0 15.34C112.931 61.652 54.436 79.023 5.008 89.904v32.384c43.538-17.739 104.324-45.105 164.305-80.789v-7.84zm0 20.112C109.468 92.918 48.696 124.333 5.008 145.127v24.885c39.106-20.153 96.306-52.673 164.305-100.22V53.771zm0 19.771c-52.891 39.651-106.777 72.662-148.965 96.47h22.498c29.561-17.535 65.504-40.374 101.242-67.154 8.345-6.245 16.621-12.436 25.225-19.09V73.543zm0 16.362c-37.415 31.525-74.203 58.632-105.332 80.108h105.332V89.904z"/>
  <path fill="#fff" d="M169.313 14.57C110.436 40.013 55.909 46.953 15.916 50.02c-3.736.3-7.322.791-10.908 1.023v8.181C53.51 55.298 111.377 44.308 169.313 18.32v-3.75zm0 12.953C111.813 54.848 53.086 69.847 5.008 78.314v11.59c49.428-10.88 107.923-28.252 164.305-56.245v-6.136zm0 13.976C109.332 77.183 48.546 104.55 5.008 122.288v22.839c43.688-20.793 104.46-52.21 164.305-91.356V41.499zm0 28.293C101.314 117.34 44.114 149.86 5.008 170.012h15.34c42.188-23.808 96.074-56.818 148.965-96.47v-3.75zm0 13.977c-8.604 6.654-16.88 12.844-25.225 19.089-35.738 26.78-71.68 49.619-101.242 67.154h21.135c31.13-21.476 67.904-48.583 105.332-80.108V83.77zM224.805 170.093h22.089V121.77h37.238v-17.344h-37.238V77.264h39.147v-17.37h-61.236v110.199zm76.371 0h21.135v-29.847c0-11.699 0-33.134 17.221-33.134 3.791 0 7.595.6 9.463 1.745V87.546c-2.209-.628-4.404-.628-6.463-.628-12.64 0-21.312 12.75-22.266 20.33h-.3V88.8h-18.79v81.293zm63.609-58.89c7.09-5.386 16.103-8.836 25.089-8.836 12.462 0 18.298 4.418 18.298 17.508h-11.685c-8.809 0-19.239.791-27.284 4.745-8.059 3.927-13.908 11.072-13.908 23.193 0 15.463 14.058 24.162 28.429 24.162 9.627 0 20.208-5.072 25.103-14.031h.313c.15 2.523.15 7.882.941 12.149h18.612c-.45-6.354-.763-11.985-.94-18.189-.164-5.959-.314-12.135-.314-20.33v-10.445c0-23.957-10.281-34.21-35.043-34.21-8.972 0-20.03 2.358-28.238 6.135l.627 18.149zm10.717 35.356c0-12.49 14.045-14.044 23.521-14.044h9.149c0 6.326-.941 12.149-4.404 16.73-3.313 4.418-8.358 7.254-14.849 7.254-7.581 0-13.417-3-13.417-9.94zM519.777 88.8h-21.148v39.747c0 10.431-3.327 26.998-18.626 26.998-13.594 0-13.758-13.404-13.758-23.344V88.8H445.11v51.309c0 18.285 8.372 31.866 27.612 31.866 11.072 0 20.207-5.072 26.67-12.94h.328v11.058h20.057V88.8zm21.776 81.293h21.121v-39.787c0-10.431 3.327-26.984 18.653-26.984 13.539 0 13.73 13.403 13.73 23.357v43.414h21.149v-51.336c0-18.285-8.386-31.839-27.653-31.839-11.031 0-20.016 3.627-26.616 12.913h-.327V88.8h-20.057v81.293zm96.428 0h21.149v-39.787c0-10.431 3.327-26.984 18.639-26.984 13.581 0 13.717 13.403 13.717 23.357v43.414h21.121v-51.336c0-18.285-8.372-31.839-27.598-31.839-11.044 0-20.194 5.018-25.566 12.913h-.313V51.712h-21.149v118.381zm88.057-40.101c0 23.344 15.639 41.983 42.46 41.983 26.957 0 42.583-18.639 42.583-41.983 0-26.834-18.435-43.074-42.583-43.074-23.984 0-42.46 16.24-42.46 43.074zm22.103-2.536c0-12.149 6.654-24.134 20.357-24.134 13.867 0 20.507 11.685 20.507 24.134 0 13.594-4.267 28.089-20.507 28.089-16.09 0-20.357-14.672-20.357-28.089zm84.116 42.637h21.148v-65.817h18.462V88.8h-18.462V78.71c0-6.327 2.195-12.476 9.299-12.476 4.582 0 7.268 1.745 9.163 2.85l1.745-17.536c-4.104-.954-10.117-1.731-15.503-1.731-16.69 0-25.852 11.371-25.852 27.611V88.8h-15.64v15.476h15.64v65.817zm67.535-48.65c.968-10.881 6.913-19.076 18.762-19.076 11.836 0 16.594 8.836 17.222 19.076h-35.984zm50.205 26.848c-7.895 4.445-16.717 8.208-27.011 8.208-13.077 0-22.226-7.418-23.194-20.507h56.205c0-28.416-8.522-49.074-38.724-49.074-25.185 0-37.675 19.403-37.675 42.91 0 26.671 15.626 42.147 42.447 42.147 11.385 0 20.207-2.222 27.952-6.477v-17.207zm21.135 21.802h21.148v-29.847c0-11.699 0-33.134 17.22-33.134 3.75 0 7.56.6 9.49 1.745V87.546c-2.23-.628-4.47-.628-6.5-.628-12.642 0-21.328 12.75-22.214 20.33h-.341V88.8h-18.803v81.293z"/>
</svg>
