<svg xmlns="http://www.w3.org/2000/svg" width="1367" height="261" fill="none" viewBox="0 0 1367 261">
  <g clip-path="url(#clip0_85:6)">
    <path fill="#fff" d="M278.389 46.633h-22.777c-8.316 0-15.547 2.53-21.332 7.591-5.784 5.061-8.315 11.568-8.315 19.883v66.515h-18.8V30.366h18.8v14.46c6.508-9.76 16.631-14.46 29.647-14.46h22.777c12.292 0 22.416 2.53 29.646 7.953 8.316 5.784 12.655 14.46 13.016 25.666h-18.8c-1.085-11.568-9.039-17.352-23.862-17.352zm180.049 29.281c-.362-10.122-.361-15.906-.723-16.629-1.085-5.422-4.7-9.037-11.208-10.483-4.338-1.084-12.654-1.446-24.947-1.446h-22.415c-14.824 0-24.585 1.446-28.924 4.338-5.423 3.615-8.315 11.93-8.315 24.582h96.532v-.362zm17.716 32.173c0 14.099-4.7 23.136-13.739 27.474-6.869 3.254-20.246 5.061-40.493 5.061h-24.223c-15.547 0-26.755-1.446-33.624-3.976-7.593-2.892-13.016-7.953-15.908-15.545-2.531-6.868-3.977-18.075-3.977-33.619 0-16.629 1.085-28.197 3.615-35.426 2.531-8.315 7.593-14.099 15.185-17.352 7.231-2.892 18.801-4.7 35.07-4.7h24.224c17.715 0 31.092 2.53 39.769 7.23 7.954 4.338 12.655 11.207 13.739 20.605.362 1.808.362 7.953.723 18.075V91.82H361.544c0 14.821 2.531 23.859 7.954 27.835 4.339 2.892 13.739 4.7 28.924 4.7h23.138c13.739 0 22.778-.723 26.755-1.808 6.508-1.807 10.123-6.507 9.761-14.098h18.078v-.362zm210.419-23.858c0-24.582-12.293-36.873-36.878-36.873-15.908 0-26.754 3.615-32.539 11.206-5.062 6.507-7.592 18.075-7.592 34.343v48.079H592.21V91.459c0-15.183-2.17-26.028-6.147-32.174-5.061-7.952-14.823-11.929-29.285-11.929s-24.946 2.53-30.731 7.591c-6.869 5.423-10.123 15.545-10.123 29.643v56.755h-16.631V84.229c0-35.788 16.992-53.502 51.339-53.502 13.377 0 23.139.723 28.923 2.53 9.762 2.893 16.993 9.038 21.693 18.076 7.593-13.737 20.97-20.967 40.493-20.967 13.377 0 22.416.361 26.393 1.084 24.223 3.977 36.154 21.69 36.154 52.779v56.393h-16.631l-1.084-56.393zm232.111 0c0-24.582-12.292-36.873-36.877-36.873-15.908 0-26.755 3.615-32.539 11.206-5.062 6.507-7.593 18.075-7.593 34.343v48.079h-17.354V91.459c0-15.183-2.169-26.028-6.146-32.174-5.062-7.952-14.823-11.929-29.285-11.929s-24.947 2.53-30.732 7.591c-6.869 5.423-10.123 15.545-10.123 29.643v56.755H730.32V84.229c0-35.788 16.992-53.502 51.339-53.502 13.377 0 23.139.723 28.923 2.53 9.762 2.893 16.993 9.038 21.693 18.076 7.593-13.737 20.97-20.967 40.493-20.967 13.377 0 22.416.361 26.393 1.084 23.862 3.977 36.154 21.69 36.154 52.779v56.393h-16.631V84.229zm157.276-8.315c-.37-10.122-.37-15.906-.73-16.629-1.08-5.422-4.7-9.037-11.2-10.483-4.34-1.084-12.66-1.446-24.95-1.446h-22.42c-14.82 0-24.582 1.446-28.921 4.338-5.423 3.615-8.315 11.93-8.315 24.582h96.536v-.362zm17.71 32.173c0 14.099-4.7 23.136-13.74 27.474-6.87 3.254-20.24 5.061-40.49 5.061h-24.22c-15.55 0-26.396-1.446-33.627-3.976-7.592-2.892-13.016-7.953-15.908-15.545-2.531-6.868-3.977-18.075-3.977-33.619 0-16.629 1.085-28.197 3.616-35.426 2.53-8.315 7.592-14.099 15.184-17.352 7.231-2.892 18.801-4.7 35.072-4.7h24.22c17.72 0 31.09 2.53 39.77 7.23 7.96 4.338 12.66 11.207 13.74 20.605.36 1.808.36 7.953.72 18.075V91.82H979.424c0 14.821 2.531 23.859 7.954 27.835 4.338 2.892 13.742 4.7 28.922 4.7h23.14c13.74 0 22.78-.723 26.75-1.808 6.87-1.807 10.13-6.507 9.77-14.098h17.71v-.362zm93.28-61.092h-22.78c-8.31 0-15.54 2.53-21.33 7.591-5.78 5.06-8.31 11.568-8.31 19.882v66.154h-18.8V30.727h18.8v14.46c6.87-9.76 16.63-14.46 29.64-14.46h22.78c12.29 0 22.42 2.53 29.65 7.953 8.31 5.784 12.65 14.46 13.01 25.666h-18.44c-1.44-11.568-9.4-17.351-24.22-17.351zm123.65.361v53.863c0 8.314 2.17 14.46 6.51 17.713 3.61 2.892 8.67 4.338 15.9 4.7v16.629h-1.08c-14.46 0-24.95-3.254-30.73-9.399-5.79-6.146-9.04-16.629-9.04-31.45V47.356h-49.53V30.727H1367v16.63h-56.4z"/>
    <path fill="#E5007E" d="M107.379 53.14c8.315 11.568 2.892 27.112-2.893 32.535-5.061 4.699-14.462 7.953-27.839 7.953l33.624 47.355h34.708V30.366H34.347v12.652h39.408c5.785 0 26.393-1.084 33.624 10.122z"/>
    <path fill="#E5007E" d="M17.354 17.352h138.11v138.091H17.354V17.352zM0 172.434h172.457V0H0v172.434z"/>
    <path fill="#B4B4B6" d="M268.627 260.277h-7.592l-14.462-43.018-14.462 43.018h-7.592l-17.354-55.309h8.677l12.654 44.464 14.461-44.464h6.87l14.462 44.464 12.654-44.464h8.677l-16.993 55.309zm32.901-25.666c0 12.291 5.784 19.159 16.269 19.159 6.508 0 10.123-1.807 14.462-6.145l5.423 4.699c-5.785 5.784-10.846 8.676-20.246 8.676-14.462 0-24.224-8.676-24.224-28.197 0-17.713 8.677-28.196 22.777-28.196 14.101 0 22.778 10.483 22.778 26.75v3.615h-37.239v-.361zm27.477-15.183c-2.169-5.061-7.231-8.314-13.016-8.314-5.784 0-10.846 3.253-13.015 8.314-1.085 2.892-1.446 4.7-1.808 9.037h29.285c.362-4.337 0-5.783-1.446-9.037zm126.179 40.849v-33.981c0-9.76-5.423-14.821-13.739-14.821-7.954 0-13.738 5.061-13.738 13.737v35.065h-8.316v-33.981c0-9.76-5.423-14.821-13.738-14.821-8.316 0-13.739 5.061-13.739 14.821v33.981h-7.954v-55.309h7.954v6.146c3.977-4.338 9.4-6.869 15.546-6.869 7.593 0 13.739 3.254 16.993 9.038 4.338-6.146 10.485-9.038 18.077-9.038 5.785 0 10.846 1.808 14.1 5.061 3.977 3.977 5.785 9.038 5.785 15.545v35.426h-7.231zm58.932 0v-5.422c-4.339 4.338-8.677 5.784-15.908 5.784-7.593 0-12.293-1.446-15.547-5.061-2.53-2.531-3.977-6.869-3.977-11.207 0-9.76 6.87-15.906 19.162-15.906h16.631v-5.422c0-7.953-3.977-12.291-14.1-12.291-7.231 0-10.485 1.808-14.1 6.146l-5.423-5.061c5.061-6.507 10.485-8.315 19.523-8.315 14.823 0 22.054 6.507 22.054 18.437v38.318h-8.315zm0-25.666h-15.547c-8.315 0-12.292 3.253-12.292 9.76s3.977 9.399 12.654 9.399c4.7 0 9.039-.361 12.292-3.615 1.808-1.807 2.893-5.061 2.893-9.399v-6.145zm63.993 25.666l-17.354-28.197-10.846 12.291v15.906h-7.954v-79.89h7.954v53.501l24.946-28.558h10.124l-18.801 20.966 22.054 33.981h-10.123zm26.755-25.666c0 12.291 5.784 19.159 16.269 19.159 6.508 0 10.123-1.807 14.462-6.145l5.423 4.699c-5.785 5.784-10.846 8.676-20.246 8.676-14.462 0-24.224-8.676-24.224-28.197 0-17.713 8.677-28.196 22.777-28.196 14.101 0 22.778 10.483 22.778 26.75v3.615h-37.239v-.361zm27.477-15.183c-2.169-5.061-7.231-8.314-13.016-8.314-5.784 0-10.846 3.253-13.015 8.314-1.085 2.892-1.446 4.7-1.808 9.037h29.285c0-4.337-.361-5.783-1.446-9.037zm125.817 40.849v-33.981c0-9.76-5.423-14.821-13.738-14.821-7.954 0-13.739 5.061-13.739 13.737v35.065h-7.954v-33.981c0-9.76-5.423-14.821-13.739-14.821-8.315 0-13.738 5.061-13.738 14.821v33.981h-7.954v-55.309h7.954v6.146c3.977-4.338 9.4-6.869 15.546-6.869 7.593 0 13.739 3.254 16.993 9.038 4.338-6.146 10.485-9.038 18.077-9.038 5.785 0 10.846 1.808 14.1 5.061 3.977 3.977 5.785 9.038 5.785 15.545v35.426h-7.593zm58.932 0v-5.422c-4.338 4.338-8.677 5.784-15.908 5.784-7.592 0-12.292-1.446-15.546-5.061-2.531-2.531-3.977-6.869-3.977-11.207 0-9.76 6.869-15.906 19.162-15.906h16.631v-5.422c0-7.953-3.977-12.291-14.1-12.291-7.231 0-10.485 1.808-14.101 6.146l-5.423-5.061c5.062-6.507 10.485-8.315 19.524-8.315 14.823 0 22.054 6.507 22.054 18.437v38.318h-8.316zm0-25.666h-15.546c-8.316 0-12.293 3.253-12.293 9.76s3.977 9.399 12.654 9.399c4.7 0 9.039-.361 12.293-3.615 1.808-1.807 2.892-5.061 2.892-9.399v-6.145zm43.386 25.666c-9.401 0-14.101-6.507-14.101-14.821v-33.981h-6.869v-6.145h6.869v-17.352h7.954v17.352h11.931v6.145h-11.931v33.619c0 5.061 2.531 7.953 7.593 7.953h4.338v7.23h-5.784zm25.669-25.666c0 12.291 5.785 19.159 16.27 19.159 6.508 0 10.123-1.807 14.462-6.145l5.423 4.699c-5.785 5.784-10.847 8.676-20.247 8.676-14.462 0-24.223-8.676-24.223-28.197 0-17.713 8.677-28.196 22.777-28.196 14.1 0 22.777 10.483 22.777 26.75v3.615h-37.239v-.361zm27.478-15.183c-2.17-5.061-7.231-8.314-13.016-8.314s-10.846 3.253-13.016 8.314c-1.084 2.892-1.446 4.7-1.807 9.037h29.285c0-4.337 0-5.783-1.446-9.037zm57.847-3.976c-2.893-2.892-5.423-3.977-9.4-3.977-7.954 0-13.378 6.507-13.378 14.821v33.981h-7.954v-55.309h7.954v6.869c2.893-4.7 9.039-7.23 15.547-7.23 5.423 0 9.4 1.084 13.377 5.061l-6.146 5.784zm15.908-26.028v-9.037h9.038v9.037h-9.038zm.723 70.853v-55.309h7.954v55.309h-7.954zm59.659 0v-5.422c-4.34 4.338-8.68 5.784-15.91 5.784-7.59 0-12.29-1.446-15.55-5.061-2.53-2.531-3.98-6.869-3.98-11.207 0-9.76 6.87-15.906 19.17-15.906h16.63v-5.422c0-7.953-3.98-12.291-14.1-12.291-7.23 0-10.49 1.808-13.74 6.146l-5.42-5.061c5.06-6.507 10.48-8.315 19.52-8.315 14.82 0 22.05 6.507 22.05 18.437v38.318h-8.67zm0-25.666h-15.55c-8.32 0-12.29 3.253-12.29 9.76s3.97 9.399 12.65 9.399c4.7 0 9.04-.361 12.29-3.615 1.81-1.807 2.9-5.061 2.9-9.399v-6.145zm41.57 25.666c-9.76 0-14.1-6.145-14.1-14.821v-65.069h7.96v64.707c0 5.423 1.8 7.953 7.23 7.953h4.34v7.23h-5.43zm57.13-48.802v48.802h-7.96v-48.802h-7.23v-6.145h7.23v-10.484c0-8.314 4.7-14.821 14.1-14.821h5.79v6.868h-4.34c-5.06 0-7.23 2.892-7.23 7.953v10.122h11.93v6.146h-12.29v.361zm38.68 48.802c-9.76 0-14.1-6.145-14.1-14.821v-65.069h7.96v64.707c0 5.423 1.8 7.953 7.23 7.953h4.34v7.23h-5.43zm54.6-5.784c-3.98 3.977-9.04 6.146-15.91 6.146-6.87 0-11.93-2.531-15.91-6.146-5.78-5.784-6.87-13.375-6.87-22.051 0-8.676 1.09-16.267 6.87-22.051 3.98-3.977 9.04-6.146 15.91-6.146 6.87 0 11.93 2.531 15.91 6.146 5.78 5.784 6.87 13.375 6.87 22.051 0 8.676-1.45 16.629-6.87 22.051zm-5.79-39.041c-2.53-2.531-6.15-3.977-10.12-3.977-3.98 0-7.23 1.446-10.13 3.977-3.97 3.976-4.33 10.845-4.33 16.99 0 6.145.36 13.014 4.33 16.99 2.54 2.531 6.15 3.977 10.13 3.977 3.97 0 7.59-1.446 10.12-3.977 3.98-3.976 4.34-10.845 4.34-16.99 0-6.145-.36-13.014-4.34-16.99zm81.71 44.825h-7.59l-14.46-43.018-14.47 43.018h-7.59l-17.35-55.309h8.67l12.66 44.464 14.46-44.464h6.87l14.46 44.464 12.66-44.464h8.67l-16.99 55.309z"/>
  </g>
  <defs>
    <clipPath id="clip0_85:6">
      <path fill="#fff" d="M0 0h1367v261H0z"/>
    </clipPath>
  </defs>
</svg>
