<svg id="Ebene_1" xmlns="http://www.w3.org/2000/svg" viewBox="0 0 378.1 72.2"><style>.st0{fill:#1d1d1b}.st1{fill:#e5007e}.st2{fill:#87888e}</style><path class="st0" d="M77 12.9h-6.3c-2.3 0-4.3.7-5.9 2.1-1.6 1.4-2.3 3.2-2.3 5.5v18.4h-5.2V8.4h5.2v4c1.8-2.7 4.6-4 8.2-4H77c3.4 0 6.2.7 8.2 2.2 2.3 1.6 3.5 4 3.6 7.1h-5.2c-.3-3.2-2.5-4.8-6.6-4.8M126.8 21c-.1-2.8-.1-4.4-.2-4.6-.3-1.5-1.3-2.5-3.1-2.9-1.2-.3-3.5-.4-6.9-.4h-6.2c-4.1 0-6.8.4-8 1.2-1.5 1-2.3 3.3-2.3 6.8h26.7zm4.9 8.9c0 3.9-1.3 6.4-3.8 7.6-1.9.9-5.6 1.4-11.2 1.4H110c-4.3 0-7.4-.4-9.3-1.1-2.1-.8-3.6-2.2-4.4-4.3-.7-1.9-1.1-5-1.1-9.3 0-4.6.3-7.8 1-9.8.7-2.3 2.1-3.9 4.2-4.8 2-.8 5.2-1.3 9.7-1.3h6.7c4.9 0 8.6.7 11 2 2.2 1.2 3.5 3.1 3.8 5.7.1.5.1 2.2.2 5v4.4H100c0 4.1.7 6.6 2.2 7.7 1.2.8 3.8 1.3 8 1.3h6.4c3.8 0 6.3-.2 7.4-.5 1.8-.5 2.8-1.8 2.7-3.9h5zM189.9 23.3c0-6.8-3.4-10.2-10.2-10.2-4.4 0-7.4 1-9 3.1-1.4 1.8-2.1 5-2.1 9.5V39h-4.8V25.3c0-4.2-.6-7.2-1.7-8.9-1.4-2.2-4.1-3.3-8.1-3.3s-6.9.7-8.5 2.1c-1.9 1.5-2.8 4.3-2.8 8.2v15.7h-4.6V23.3c0-9.9 4.7-14.8 14.2-14.8 3.7 0 6.4.2 8 .7 2.7.8 4.7 2.5 6 5 2.1-3.8 5.8-5.8 11.2-5.8 3.7 0 6.2.1 7.3.3 6.7 1.1 10 6 10 14.6v15.6h-4.6l-.3-15.6zM254.1 23.3c0-6.8-3.4-10.2-10.2-10.2-4.4 0-7.4 1-9 3.1-1.4 1.8-2.1 5-2.1 9.5V39H228V25.3c0-4.2-.6-7.2-1.7-8.9-1.4-2.2-4.1-3.3-8.1-3.3s-6.9.7-8.5 2.1c-1.9 1.5-2.8 4.3-2.8 8.2v15.7H202V23.3c0-9.9 4.7-14.8 14.2-14.8 3.7 0 6.4.2 8 .7 2.7.8 4.7 2.5 6 5 2.1-3.8 5.8-5.8 11.2-5.8 3.7 0 6.2.1 7.3.3 6.6 1.1 10 6 10 14.6v15.6h-4.6V23.3zM297.6 21c-.1-2.8-.1-4.4-.2-4.6-.3-1.5-1.3-2.5-3.1-2.9-1.2-.3-3.5-.4-6.9-.4h-6.2c-4.1 0-6.8.4-8 1.2-1.5 1-2.3 3.3-2.3 6.8h26.7zm4.9 8.9c0 3.9-1.3 6.4-3.8 7.6-1.9.9-5.6 1.4-11.2 1.4h-6.7c-4.3 0-7.3-.4-9.3-1.1-2.1-.8-3.6-2.2-4.4-4.3-.7-1.9-1.1-5-1.1-9.3 0-4.6.3-7.8 1-9.8.7-2.3 2.1-3.9 4.2-4.8 2-.8 5.2-1.3 9.7-1.3h6.7c4.9 0 8.6.7 11 2 2.2 1.2 3.5 3.1 3.8 5.7.1.5.1 2.2.2 5v4.4h-31.7c0 4.1.7 6.6 2.2 7.7 1.2.8 3.8 1.3 8 1.3h6.4c3.8 0 6.3-.2 7.4-.5 1.9-.5 2.8-1.8 2.7-3.9h4.9zM328.3 13H322c-2.3 0-4.3.7-5.9 2.1-1.6 1.4-2.3 3.2-2.3 5.5v18.3h-5.2V8.5h5.2v4c1.9-2.7 4.6-4 8.2-4h6.3c3.4 0 6.2.7 8.2 2.2 2.3 1.6 3.5 4 3.6 7.1H335c-.4-3.2-2.6-4.8-6.7-4.8M362.5 13.1V28c0 2.3.6 4 1.8 4.9 1 .8 2.4 1.2 4.4 1.3v4.6h-.3c-4 0-6.9-.9-8.5-2.6s-2.5-4.6-2.5-8.7V13.1h-13.7V8.5h34.4v4.6h-15.6z"/><path class="st1" d="M29.7 14.7c2.3 3.2.8 7.5-.8 9-1.4 1.3-4 2.2-7.7 2.2L30.5 39h9.6V8.4H9.5v3.5h10.9c1.6 0 7.3-.3 9.3 2.8"/><path class="st1" d="M4.8 4.8H43V43H4.8V4.8zM0 47.7h47.7V0H0v47.7z"/><path class="st2" d="M74.3 72h-2.1l-4-11.9-4 11.9h-2.1l-4.8-15.3h2.4L63.2 69l4-12.3h1.9l4 12.3 3.5-12.3H79L74.3 72zM83.4 64.9c0 3.4 1.6 5.3 4.5 5.3 1.8 0 2.8-.5 4-1.7l1.5 1.3c-1.6 1.6-3 2.4-5.6 2.4-4 0-6.7-2.4-6.7-7.8 0-4.9 2.4-7.8 6.3-7.8s6.3 2.9 6.3 7.4v1H83.4zm7.6-4.2c-.6-1.4-2-2.3-3.6-2.3s-3 .9-3.6 2.3c-.3.8-.4 1.3-.5 2.5h8.1c.1-1.2 0-1.6-.4-2.5zM125.9 72v-9.4c0-2.7-1.5-4.1-3.8-4.1-2.2 0-3.8 1.4-3.8 3.8V72H116v-9.4c0-2.7-1.5-4.1-3.8-4.1s-3.8 1.4-3.8 4.1V72h-2.2V56.7h2.2v1.7c1.1-1.2 2.6-1.9 4.3-1.9 2.1 0 3.8.9 4.7 2.5 1.2-1.7 2.9-2.5 5-2.5 1.6 0 3 .5 3.9 1.4 1.1 1.1 1.6 2.5 1.6 4.3V72h-2zM142.2 72v-1.5c-1.2 1.2-2.4 1.6-4.4 1.6-2.1 0-3.4-.4-4.3-1.4-.7-.7-1.1-1.9-1.1-3.1 0-2.7 1.9-4.4 5.3-4.4h4.6v-1.5c0-2.2-1.1-3.4-3.9-3.4-2 0-2.9.5-3.9 1.7l-1.5-1.4c1.4-1.8 2.9-2.3 5.4-2.3 4.1 0 6.1 1.8 6.1 5.1V72h-2.3zm0-7.1h-4.3c-2.3 0-3.4.9-3.4 2.7 0 1.8 1.1 2.6 3.5 2.6 1.3 0 2.5-.1 3.4-1 .5-.5.8-1.4.8-2.6v-1.7zM159.9 72l-4.8-7.8-3 3.4V72h-2.2V49.9h2.2v14.8l6.9-7.9h2.8l-5.2 5.8 6.1 9.4h-2.8zM167.3 64.9c0 3.4 1.6 5.3 4.5 5.3 1.8 0 2.8-.5 4-1.7l1.5 1.3c-1.6 1.6-3 2.4-5.6 2.4-4 0-6.7-2.4-6.7-7.8 0-4.9 2.4-7.8 6.3-7.8s6.3 2.9 6.3 7.4v1h-10.3zm7.6-4.2c-.6-1.4-2-2.3-3.6-2.3s-3 .9-3.6 2.3c-.3.8-.4 1.3-.5 2.5h8.1c0-1.2-.1-1.6-.4-2.5zM209.7 72v-9.4c0-2.7-1.5-4.1-3.8-4.1-2.2 0-3.8 1.4-3.8 3.8V72h-2.2v-9.4c0-2.7-1.5-4.1-3.8-4.1s-3.8 1.4-3.8 4.1V72h-2.2V56.7h2.2v1.7c1.1-1.2 2.6-1.9 4.3-1.9 2.1 0 3.8.9 4.7 2.5 1.2-1.7 2.9-2.5 5-2.5 1.6 0 3 .5 3.9 1.4 1.1 1.1 1.6 2.5 1.6 4.3V72h-2.1zM226 72v-1.5c-1.2 1.2-2.4 1.6-4.4 1.6-2.1 0-3.4-.4-4.3-1.4-.7-.7-1.1-1.9-1.1-3.1 0-2.7 1.9-4.4 5.3-4.4h4.6v-1.5c0-2.2-1.1-3.4-3.9-3.4-2 0-2.9.5-3.9 1.7l-1.5-1.4c1.4-1.8 2.9-2.3 5.4-2.3 4.1 0 6.1 1.8 6.1 5.1V72H226zm0-7.1h-4.3c-2.3 0-3.4.9-3.4 2.7 0 1.8 1.1 2.6 3.5 2.6 1.3 0 2.5-.1 3.4-1 .5-.5.8-1.4.8-2.6v-1.7zM238 72c-2.6 0-3.9-1.8-3.9-4.1v-9.4h-1.9v-1.7h1.9V52h2.2v4.8h3.3v1.7h-3.3v9.3c0 1.4.7 2.2 2.1 2.2h1.2v2H238zM245.1 64.9c0 3.4 1.6 5.3 4.5 5.3 1.8 0 2.8-.5 4-1.7l1.5 1.3c-1.6 1.6-3 2.4-5.6 2.4-4 0-6.7-2.4-6.7-7.8 0-4.9 2.4-7.8 6.3-7.8s6.3 2.9 6.3 7.4v1h-10.3zm7.6-4.2c-.6-1.4-2-2.3-3.6-2.3s-3 .9-3.6 2.3c-.3.8-.4 1.3-.5 2.5h8.1c0-1.2 0-1.6-.4-2.5zM268.7 59.6c-.8-.8-1.5-1.1-2.6-1.1-2.2 0-3.7 1.8-3.7 4.1V72h-2.2V56.7h2.2v1.9c.8-1.3 2.5-2 4.3-2 1.5 0 2.6.3 3.7 1.4l-1.7 1.6zM273.1 52.4v-2.5h2.5v2.5h-2.5zm.2 19.6V56.7h2.2V72h-2.2zM289.8 72v-1.5c-1.2 1.2-2.4 1.6-4.4 1.6-2.1 0-3.4-.4-4.3-1.4-.7-.7-1.1-1.9-1.1-3.1 0-2.7 1.9-4.4 5.3-4.4h4.6v-1.5c0-2.2-1.1-3.4-3.9-3.4-2 0-2.9.5-3.8 1.7l-1.5-1.4c1.4-1.8 2.9-2.3 5.4-2.3 4.1 0 6.1 1.8 6.1 5.1V72h-2.4zm0-7.1h-4.3c-2.3 0-3.4.9-3.4 2.7 0 1.8 1.1 2.6 3.5 2.6 1.3 0 2.5-.1 3.4-1 .5-.5.8-1.4.8-2.6v-1.7zM301.3 72c-2.7 0-3.9-1.7-3.9-4.1v-18h2.2v17.9c0 1.5.5 2.2 2 2.2h1.2v2h-1.5zM317.1 58.5V72h-2.2V58.5h-2v-1.7h2v-2.9c0-2.3 1.3-4.1 3.9-4.1h1.6v1.9h-1.2c-1.4 0-2 .8-2 2.2v2.8h3.3v1.7h-3.4zM327.8 72c-2.7 0-3.9-1.7-3.9-4.1v-18h2.2v17.9c0 1.5.5 2.2 2 2.2h1.2v2h-1.5zM342.9 70.4c-1.1 1.1-2.5 1.7-4.4 1.7s-3.3-.7-4.4-1.7c-1.6-1.6-1.9-3.7-1.9-6.1s.3-4.5 1.9-6.1c1.1-1.1 2.5-1.7 4.4-1.7s3.3.7 4.4 1.7c1.6 1.6 1.9 3.7 1.9 6.1s-.4 4.6-1.9 6.1zm-1.6-10.8c-.7-.7-1.7-1.1-2.8-1.1s-2 .4-2.8 1.1c-1.1 1.1-1.2 3-1.2 4.7s.1 3.6 1.2 4.7c.7.7 1.7 1.1 2.8 1.1s2.1-.4 2.8-1.1c1.1-1.1 1.2-3 1.2-4.7s-.1-3.6-1.2-4.7zM363.9 72h-2.1l-4-11.9-4 11.9h-2.1l-4.8-15.3h2.4l3.5 12.3 4-12.3h1.9l4 12.3 3.5-12.3h2.4L363.9 72z"/></svg>